<svg width="81" height="26" viewBox="0 0 81 26" fill="none" xmlns="http://www.w3.org/2000/svg">
<path d="M1.44543 19.9944V10.3877H12.5617V9.82579H1.44543V1.06176H13.2645V0.5H0.924805V20.5561H13.3686V19.9944H1.44543ZM23.3915 6.1179L18.7837 12.6629L14.2798 6.11807H13.6029L18.4712 13.0844L13.1342 20.556H13.759L18.7834 13.5054L23.8339 20.556H24.4846L19.1218 13.084L24.0161 6.11773L23.3915 6.1179ZM26.0468 25.5V16.5114H26.0989C26.4114 17.8222 27.0275 18.8756 27.9473 19.6715C28.8671 20.4673 30.0386 20.8653 31.4617 20.8653C32.3815 20.8653 33.1973 20.664 33.9089 20.2614C34.6204 19.8588 35.2148 19.3111 35.6922 18.6182C36.1693 17.9252 36.5339 17.12 36.7856 16.2024C37.0371 15.2849 37.1631 14.3203 37.1631 13.3093C37.1631 12.223 37.0328 11.2211 36.7725 10.3036C36.5121 9.38593 36.1346 8.59 35.6401 7.91596C35.1454 7.24175 34.5467 6.71725 33.8437 6.34297C33.1409 5.96835 32.3468 5.78105 31.4617 5.78105C30.7848 5.78105 30.1557 5.88878 29.5743 6.10407C28.9929 6.31954 28.4767 6.62368 28.0254 7.01701C27.5715 7.41336 27.1765 7.88224 26.8539 8.40741C26.5242 8.94118 26.2725 9.52637 26.0989 10.1631H26.0468V6.1179H25.5262V25.5H26.0468ZM31.4617 20.3314C29.8304 20.3314 28.52 19.7275 27.5307 18.5197C26.5415 17.3119 26.0468 15.5749 26.0468 13.3089C26.0468 12.3726 26.1684 11.4831 26.4114 10.6404C26.6543 9.7978 27.0057 9.05801 27.4656 8.4214C27.9256 7.78462 28.494 7.27901 29.1707 6.90456C29.8476 6.52994 30.6114 6.34263 31.4617 6.34263C32.3295 6.34263 33.0889 6.52994 33.7396 6.90456C34.3904 7.27901 34.9286 7.78934 35.3537 8.43539C35.7789 9.08145 36.1 9.82124 36.317 10.6544C36.5339 11.4878 36.6423 12.3726 36.6423 13.3089C36.6423 14.1518 36.5426 14.9898 36.3429 15.823C36.1434 16.6564 35.8353 17.4055 35.4187 18.0704C35.0023 18.735 34.4687 19.278 33.8178 19.6995C33.1668 20.1208 32.3815 20.3314 31.4617 20.3314ZM40.0267 20.5561V12.382C40.0267 11.5955 40.1307 10.8276 40.3392 10.0787C40.5473 9.32962 40.8684 8.6694 41.3023 8.09837C41.7362 7.52718 42.2871 7.0777 42.9554 6.74996C43.6236 6.42221 44.4176 6.28649 45.3375 6.34263V5.78088C44.539 5.76233 43.8406 5.85573 43.2418 6.06176C42.6429 6.26778 42.1267 6.54866 41.6928 6.90456C41.2589 7.26029 40.9118 7.67689 40.6515 8.15452C40.3914 8.63139 40.1984 9.14729 40.0787 9.68535H40.0267V6.1179H39.5061V20.5563L40.0267 20.5561ZM45.9882 13.4494H57.1825C57.2173 12.4569 57.1262 11.502 56.9092 10.5843C56.6923 9.66664 56.3451 8.85199 55.8679 8.14052C55.3906 7.42889 54.7745 6.85769 54.0195 6.42693C53.2645 5.99617 52.3664 5.78088 51.3251 5.78088C50.5787 5.78088 49.8498 5.94947 49.1382 6.28666C48.4267 6.62368 47.8018 7.11513 47.2639 7.76119C46.7259 8.40724 46.292 9.19845 45.9623 10.135C45.6326 11.0712 45.4676 12.1386 45.4676 13.3371C45.4676 14.4045 45.5804 15.4017 45.8061 16.3286C46.0317 17.2556 46.3787 18.0609 46.8473 18.7444C47.3161 19.4279 47.9192 19.957 48.6567 20.3314C49.3942 20.706 50.2837 20.8839 51.3251 20.8652C52.8523 20.8652 54.1367 20.4015 55.1779 19.4748C56.2193 18.5477 56.8354 17.2416 57.0264 15.5561H56.5057C56.2801 17.148 55.7029 18.3418 54.7745 19.1376C53.8459 19.9335 52.6789 20.3314 51.2729 20.3314C50.3184 20.3314 49.5114 20.1535 48.8518 19.7978C48.1925 19.4421 47.6543 18.955 47.2378 18.3371C46.8214 17.719 46.5132 16.9934 46.3137 16.16C46.114 15.3269 46.0056 14.4232 45.9882 13.4494ZM56.6618 12.8876H45.9884C46.0403 11.8764 46.2139 10.9682 46.5089 10.163C46.804 9.3576 47.1901 8.6694 47.6675 8.09837C48.1447 7.52718 48.7001 7.09187 49.3336 6.79211C49.967 6.49251 50.6482 6.34263 51.3771 6.34263C52.245 6.34263 53.0084 6.51595 53.6681 6.86241C54.3275 7.20887 54.8786 7.68178 55.3212 8.28096C55.7637 8.88015 56.0978 9.57779 56.3234 10.3736C56.549 11.1695 56.6618 12.0076 56.6618 12.8876ZM67.9864 10.3877H68.507C68.507 8.77713 68.0731 7.60675 67.2054 6.8764C66.3375 6.14605 65.1573 5.78088 63.6648 5.78088C62.8317 5.78088 62.1289 5.89333 61.5561 6.11807C60.9834 6.34263 60.5148 6.63295 60.1503 6.98869C59.7859 7.34442 59.5256 7.73775 59.3693 8.16851C59.2131 8.59927 59.135 9.01131 59.135 9.40447C59.135 10.191 59.2651 10.8183 59.5256 11.2865C59.7859 11.7547 60.1937 12.1199 60.749 12.382C61.1309 12.5692 61.5646 12.7378 62.0507 12.8878C62.5367 13.0375 63.1007 13.1967 63.7429 13.3651C64.3156 13.5151 64.8797 13.6649 65.4351 13.8146C65.9904 13.9644 66.4807 14.1657 66.9059 14.4185C67.3312 14.6714 67.6782 14.9944 67.9473 15.3877C68.2162 15.7809 68.3507 16.2959 68.3507 16.9325C68.3507 17.5506 68.2164 18.0749 67.9473 18.5055C67.6805 18.934 67.3294 19.2938 66.919 19.5591C66.5025 19.8305 66.0381 20.0271 65.5262 20.1488C65.0142 20.2705 64.5153 20.3314 64.0293 20.3314C62.45 20.3314 61.2393 19.9522 60.3976 19.1939C59.5559 18.4354 59.1351 17.2416 59.1351 15.6123H58.6143C58.6143 17.4289 59.07 18.7584 59.9811 19.6012C60.8923 20.4439 62.2417 20.8652 64.0293 20.8652C64.602 20.8652 65.179 20.7949 65.7606 20.6544C66.3418 20.514 66.8626 20.2847 67.3225 19.9662C67.7784 19.6523 68.1614 19.2295 68.4418 18.7304C68.7282 18.2247 68.8715 17.6068 68.8715 16.8764C68.8715 16.1835 68.7456 15.6217 68.494 15.191C68.2423 14.7604 67.9126 14.4045 67.5046 14.1236C67.0968 13.8427 66.637 13.6227 66.125 13.4635C65.61 13.3035 65.0937 13.1489 64.5759 12.9999C63.9387 12.8195 63.3009 12.6417 62.6625 12.4663C62.1159 12.3164 61.6082 12.1386 61.1396 11.9325C60.6884 11.7265 60.3282 11.4317 60.0592 11.0478C59.7901 10.6639 59.6557 10.1161 59.6557 9.40447C59.6557 9.27348 59.6904 9.0393 59.7598 8.70228C59.8292 8.36509 59.9942 8.02335 60.2545 7.67689C60.5148 7.3306 60.9139 7.02156 61.452 6.74996C61.99 6.47852 62.7276 6.34263 63.6648 6.34263C64.307 6.34263 64.8926 6.41766 65.422 6.56737C65.9514 6.71725 66.407 6.95598 66.7887 7.28373C67.1706 7.61147 67.4656 8.02807 67.6739 8.53368C67.8821 9.03947 67.9864 9.65737 67.9864 10.3877ZM80.0396 10.3877H80.5603C80.5603 8.77713 80.1265 7.60675 79.2587 6.8764C78.3909 6.14605 77.2107 5.78088 75.7181 5.78088C74.8851 5.78088 74.1822 5.89333 73.6095 6.11807C73.0367 6.34263 72.5681 6.63295 72.2037 6.98869C71.8392 7.34442 71.5789 7.73775 71.4226 8.16851C71.2664 8.59927 71.1884 9.01131 71.1884 9.40447C71.1884 10.191 71.3186 10.8183 71.579 11.2865C71.8392 11.7547 72.2471 12.1199 72.8025 12.382C73.1843 12.5692 73.6181 12.7378 74.104 12.8878C74.59 13.0375 75.154 13.1967 75.7962 13.3651C76.369 13.5151 76.9331 13.6649 77.4884 13.8146C78.0439 13.9644 78.534 14.1657 78.9593 14.4185C79.3845 14.6714 79.7317 14.9944 80.0006 15.3877C80.2696 15.7809 80.4042 16.2959 80.4042 16.9325C80.4042 17.5506 80.2696 18.0749 80.0006 18.5055C79.7339 18.934 79.3828 19.2938 78.9725 19.5591C78.5557 19.8305 78.0915 20.0271 77.5795 20.1488C77.0676 20.2705 76.5686 20.3314 76.0826 20.3314C74.5032 20.3314 73.2928 19.9522 72.4511 19.1939C71.6092 18.4354 71.1884 17.2416 71.1884 15.6123H70.6678C70.6678 17.4289 71.1232 18.7584 72.0345 19.6012C72.9456 20.4439 74.295 20.8652 76.0826 20.8652C76.6554 20.8652 77.2325 20.7949 77.8139 20.6544C78.3951 20.514 78.9159 20.2847 79.3759 19.9662C79.8318 19.6523 80.2148 19.2295 80.4953 18.7304C80.7817 18.2247 80.9248 17.6068 80.9248 16.8764C80.9248 16.1835 80.799 15.6217 80.5473 15.191C80.2957 14.7604 79.9661 14.4045 79.5581 14.1236C79.1503 13.8427 78.6903 13.6227 78.1784 13.4635C77.6635 13.3035 77.1471 13.1489 76.6293 12.9999C75.9921 12.8195 75.3543 12.6417 74.7159 12.4663C74.1692 12.3164 73.6615 12.1386 73.1929 11.9325C72.7417 11.7265 72.3815 11.4317 72.1126 11.0478C71.8436 10.6639 71.709 10.1161 71.709 9.40447C71.709 9.27348 71.7437 9.0393 71.8132 8.70228C71.8826 8.36509 72.0476 8.02335 72.3078 7.67689C72.5681 7.3306 72.9673 7.02156 73.5053 6.74996C74.0434 6.47852 74.7809 6.34263 75.7182 6.34263C76.3604 6.34263 76.9461 6.41766 77.4754 6.56737C78.0048 6.71725 78.4603 6.95598 78.8421 7.28373C79.224 7.61147 79.519 8.02807 79.7273 8.53368C79.9356 9.03947 80.0396 9.65737 80.0396 10.3877Z" fill="white"/>
</svg>
