<svg width="70" height="70" viewBox="0 0 70 70" fill="none" xmlns="http://www.w3.org/2000/svg">
<path d="M35.0002 5.83337H24.7918C22.0844 5.83337 19.4879 6.90889 17.5734 8.82333C15.659 10.7378 14.5835 13.3343 14.5835 16.0417C14.5835 18.7491 15.659 21.3457 17.5734 23.2601C19.4879 25.1745 22.0844 26.25 24.7918 26.25M35.0002 5.83337V26.25M35.0002 5.83337H45.2085C46.5491 5.83337 47.8765 6.09742 49.1151 6.61044C50.3536 7.12345 51.4789 7.87539 52.4269 8.82333C53.3748 9.77126 54.1267 10.8966 54.6398 12.1351C55.1528 13.3737 55.4168 14.7011 55.4168 16.0417C55.4168 17.3823 55.1528 18.7097 54.6398 19.9483C54.1267 21.1868 53.3748 22.3122 52.4269 23.2601C51.4789 24.208 50.3536 24.96 49.1151 25.473C47.8765 25.986 46.5491 26.25 45.2085 26.25M35.0002 26.25H24.7918M35.0002 26.25H45.2085M35.0002 26.25V46.6667M24.7918 26.25C22.0844 26.25 19.4879 27.3256 17.5734 29.24C15.659 31.1544 14.5835 33.751 14.5835 36.4584C14.5835 39.1658 15.659 41.7623 17.5734 43.6768C19.4879 45.5912 22.0844 46.6667 24.7918 46.6667M45.2085 26.25C43.8679 26.25 42.5405 26.5141 41.3019 27.0271C40.0634 27.5401 38.938 28.2921 37.9901 29.24C37.0422 30.1879 36.2902 31.3133 35.7772 32.5518C35.2642 33.7903 35.0002 35.1178 35.0002 36.4584C35.0002 37.799 35.2642 39.1264 35.7772 40.3649C36.2902 41.6035 37.0422 42.7288 37.9901 43.6768C38.938 44.6247 40.0634 45.3766 41.3019 45.8896C42.5405 46.4027 43.8679 46.6667 45.2085 46.6667C46.5491 46.6667 47.8765 46.4027 49.1151 45.8896C50.3536 45.3766 51.4789 44.6247 52.4269 43.6768C53.3748 42.7288 54.1267 41.6035 54.6398 40.3649C55.1528 39.1264 55.4168 37.799 55.4168 36.4584C55.4168 35.1178 55.1528 33.7903 54.6398 32.5518C54.1267 31.3133 53.3748 30.1879 52.4269 29.24C51.4789 28.2921 50.3536 27.5401 49.1151 27.0271C47.8765 26.5141 46.5491 26.25 45.2085 26.25ZM24.7918 46.6667C22.0844 46.6667 19.4879 47.7422 17.5734 49.6567C15.659 51.5711 14.5835 54.1676 14.5835 56.875C14.5835 59.5825 15.659 62.179 17.5734 64.0934C19.4879 66.0079 22.0844 67.0834 24.7918 67.0834C27.4992 67.0834 30.0958 66.0079 32.0102 64.0934C33.9246 62.179 35.0002 59.5825 35.0002 56.875V46.6667M24.7918 46.6667H35.0002" stroke="white" stroke-width="4" stroke-linecap="round" stroke-linejoin="round"/>
</svg>
