<svg width="70" height="70" viewBox="0 0 70 70" fill="none" xmlns="http://www.w3.org/2000/svg">
<g clip-path="url(#clip0_151_91)">
<path d="M34 69.4851C52.7777 69.4851 68 53.7777 68 35C68 16.2223 52.7777 1 34 1C15.2223 1 0 16.2075 0 34.9851C0 53.7628 15.2223 69.4851 34 69.4851Z" fill="black"/>
<path d="M34.0014 0.177979C15.2258 0.177979 0 15.7835 0 35.0371C0 50.4411 9.74276 63.5073 23.251 68.1156C24.9494 68.4376 25.5747 67.3597 25.5747 66.4386C25.5747 65.6071 25.542 62.8606 25.5283 59.9489C16.0695 62.0571 14.0735 55.8361 14.0735 55.8361C12.528 51.8074 10.2971 50.7351 10.2971 50.7351C7.2115 48.5709 10.5292 48.6157 10.5292 48.6157C13.9424 48.8621 15.7419 52.2077 15.7419 52.2077C18.7756 57.5384 23.6961 55.9957 25.6348 55.1054C25.9406 52.8517 26.8199 51.3146 27.7947 50.4439C20.2419 49.562 12.3041 46.5719 12.3041 33.2145C12.3041 29.4097 13.6311 26.2992 15.8074 23.8579C15.4552 22.9816 14.2919 19.4372 16.1378 14.6357C16.1378 14.6357 18.994 13.6978 25.4901 18.2081C28.2016 17.4354 31.1097 17.049 34.0014 17.035C36.8903 17.049 39.8011 17.4354 42.5181 18.2081C49.0087 13.6978 51.8595 14.6357 51.8595 14.6357C53.7108 19.4372 52.5448 22.9844 52.1926 23.8607C54.3716 26.302 55.6905 29.4125 55.6905 33.2173C55.6905 46.6055 47.7363 49.5564 40.1643 50.4187C41.3849 51.4994 42.4717 53.6216 42.4717 56.8748C42.4717 61.5391 42.4334 65.2935 42.4334 66.4414C42.4334 67.3681 43.0451 68.4572 44.7681 68.1128C58.2709 63.4989 68 50.4355 68 35.0371C68 15.7835 52.7769 0.177979 34.0014 0.177979Z" fill="white"/>
</g>
<defs>
<clipPath id="clip0_151_91">
<rect width="70" height="70" fill="white"/>
</clipPath>
</defs>
</svg>
