<svg width="71" height="70" viewBox="0 0 71 70" fill="none" xmlns="http://www.w3.org/2000/svg">
<path d="M33.1395 9.10071L34.6565 11.95C34.9976 12.4758 35.3671 12.9412 35.8023 13.3747C37.0782 14.6347 38.2675 15.9795 39.3621 17.3999C41.9325 20.775 43.6663 24.5232 44.9044 28.5768C45.6469 31.0531 46.0501 33.5933 46.0803 36.1619C46.2047 43.8412 43.5721 50.4351 38.2643 55.9152C37.4009 56.7842 36.4682 57.5815 35.4754 58.2991C34.9496 58.2991 34.7009 57.8958 34.4842 57.5246C34.0895 56.8361 33.8269 56.0801 33.7097 55.2952C33.5232 54.3662 33.4006 53.4371 33.461 52.4779V52.0445C33.4184 51.9521 32.9547 9.3192 33.1395 9.10071Z" fill="white" fill-opacity="0.73"/>
<path d="M33.1396 9.00655C33.0774 8.8822 33.0152 8.97635 32.953 9.03675C32.9832 9.65847 32.7665 10.2127 32.4272 10.7421C32.0542 11.2679 31.5604 11.6711 31.0648 12.1045C28.3114 14.4884 26.1442 17.3679 24.4087 20.5885C22.0994 24.9228 20.9093 29.568 20.5717 34.4584C20.4172 36.2223 21.1295 42.4467 21.6855 44.2426C23.2026 49.0104 25.9275 53.0055 29.4572 56.4729C30.324 57.3078 31.2513 58.0823 32.2105 58.8266C32.4894 58.8266 32.5196 58.5779 32.5836 58.3932C32.7058 57.9979 32.799 57.5942 32.8625 57.1853L33.4842 52.5418L33.1396 9.00655Z" fill="white"/>
<path d="M34.6565 60.1856C34.7187 59.475 35.0597 58.8853 35.431 58.2973C35.058 58.1428 34.7809 57.8354 34.5641 57.4926C34.3773 57.168 34.2226 56.8259 34.1023 56.4712C33.6688 55.1709 33.5765 53.8066 33.4521 52.4779V51.6732C33.2976 51.7976 33.2656 52.8492 33.2656 53.0055C33.1752 54.4099 32.9889 55.8064 32.7078 57.1853C32.6155 57.7431 32.5533 58.2991 32.2104 58.7947C32.2104 58.8569 32.2104 58.919 32.2406 59.0114C32.7984 60.6528 32.9512 62.3243 33.0453 64.0279V64.6496C33.0453 65.3921 33.0151 65.2358 33.6315 65.4845C33.8802 65.5769 34.1574 65.6088 34.406 65.7936C34.5926 65.7936 34.6228 65.639 34.6228 65.5147L34.5304 64.4933V61.644C34.5002 61.1466 34.5926 60.6528 34.6547 60.1874L34.6565 60.1856Z" fill="#C2BFBF"/>
</svg>
