<svg width="70" height="70" viewBox="0 0 70 70" fill="none" xmlns="http://www.w3.org/2000/svg">
<path d="M32.6726 0.0512905C32.5222 0.064961 32.0437 0.112808 31.6131 0.146984C21.6815 1.0424 12.3787 6.40126 6.48667 14.6378C3.20574 19.2174 1.10731 24.4122 0.314422 29.9146C0.0341763 31.8353 0 32.4026 0 35.0069C0 37.6111 0.0341763 38.1784 0.314422 40.0991C2.21463 53.2297 11.5584 64.2618 24.231 68.3493C26.5003 69.0807 28.8927 69.5797 31.6131 69.8804C32.6726 69.9966 37.2522 69.9966 38.3117 69.8804C43.0075 69.3609 46.9856 68.1989 50.9091 66.1962C51.5106 65.8886 51.6268 65.8066 51.5448 65.7382C51.4901 65.6972 48.9269 62.2591 45.851 58.1032L40.2597 50.5503L33.2536 40.1812C29.3985 34.4805 26.2269 29.8189 26.1996 29.8189C26.1722 29.8121 26.1449 34.419 26.1312 40.0445C26.1107 49.8941 26.1039 50.2905 25.9809 50.5229C25.8031 50.8579 25.6664 50.9946 25.3794 51.1449C25.1606 51.2543 24.9692 51.2748 23.9371 51.2748H22.7546L22.4402 51.0766C22.2351 50.9467 22.0848 50.7758 21.9822 50.5776L21.8387 50.27L21.8729 22.8538L22.0848 22.5872C22.1941 22.4436 22.4265 22.2591 22.5906 22.1702C22.8708 22.0335 22.9802 22.0198 24.1627 22.0198C25.5571 22.0198 25.7895 22.0745 26.1517 22.471C26.2543 22.5803 30.0478 28.2946 34.5865 35.1777C39.1251 42.0609 45.3315 51.4594 48.38 56.0732L53.9166 64.46L54.1969 64.2755C56.6781 62.6624 59.3028 60.3657 61.3807 57.9734C65.8031 52.8948 68.6535 46.702 69.6104 40.0991C69.8906 38.1784 69.9248 37.6111 69.9248 35.0069C69.9248 32.4026 69.8906 31.8353 69.6104 29.9146C67.7102 16.784 58.3664 5.75191 45.6938 1.66441C43.4586 0.939876 41.08 0.440901 38.4142 0.140149C37.758 0.0717963 33.2399 -0.00339168 32.6726 0.0512905ZM46.9856 21.1996C47.3137 21.3637 47.5803 21.6781 47.676 22.0062C47.7307 22.1839 47.7444 25.9843 47.7307 34.5489L47.7102 46.8387L45.5434 43.5168L43.3698 40.1948V31.2611C43.3698 25.4853 43.3971 22.2386 43.4381 22.0814C43.5475 21.6986 43.7867 21.3978 44.1148 21.2201C44.3951 21.0766 44.4976 21.0629 45.5707 21.0629C46.5824 21.0629 46.7601 21.0766 46.9856 21.1996Z" fill="white"/>
<path d="M53.5748 64.6104C53.3356 64.7608 53.2604 64.8633 53.4723 64.7471C53.6227 64.6583 53.8688 64.4737 53.8278 64.4669C53.8072 64.4669 53.691 64.5352 53.5748 64.6104ZM53.1032 64.918C52.9802 65.0137 52.9802 65.0205 53.1306 64.9453C53.2126 64.9043 53.2809 64.8565 53.2809 64.8428C53.2809 64.7881 53.2468 64.8018 53.1032 64.918ZM52.7615 65.1231C52.6384 65.2187 52.6384 65.2256 52.7888 65.1504C52.8708 65.1094 52.9392 65.0615 52.9392 65.0479C52.9392 64.9932 52.905 65.0069 52.7615 65.1231ZM52.4197 65.3281C52.2967 65.4238 52.2967 65.4306 52.447 65.3555C52.5291 65.3144 52.5974 65.2666 52.5974 65.2529C52.5974 65.1982 52.5632 65.2119 52.4197 65.3281ZM51.9002 65.6015C51.6405 65.7382 51.6541 65.7929 51.9139 65.663C52.0301 65.6015 52.1189 65.54 52.1189 65.5263C52.1189 65.4785 52.1121 65.4853 51.9002 65.6015Z" fill="white"/>
</svg>
