<svg width="71" height="40" viewBox="0 0 71 40" fill="none" xmlns="http://www.w3.org/2000/svg">
<g clip-path="url(#clip0_151_98)">
<path d="M35.5298 39.8846C35.2929 39.8846 35.0717 39.8257 34.8663 39.7227L32.7651 38.5596C32.449 38.3976 32.607 38.3387 32.7019 38.3093C33.1284 38.1768 33.2074 38.1472 33.6498 37.9118C33.6972 37.8823 33.7605 37.897 33.8078 37.9265L35.4194 38.8246C35.4825 38.854 35.5615 38.854 35.6088 38.8246L41.9128 35.4235C41.9759 35.3941 42.0077 35.3351 42.0077 35.2616V28.4744C42.0077 28.4006 41.9759 28.3419 41.9128 28.3123L35.6088 24.9261C35.5457 24.8965 35.4667 24.8965 35.4194 24.9261L29.1154 28.3123C29.0523 28.3418 29.0206 28.4154 29.0206 28.4742V35.2615C29.0206 35.3205 29.0523 35.394 29.1154 35.4235L30.8376 36.3511C31.7697 36.7927 32.3543 36.2774 32.3543 35.7621V29.0632C32.3543 28.9749 32.4333 28.8865 32.5439 28.8865H33.3496C33.4445 28.8865 33.5392 28.9601 33.5392 29.0632V35.7621C33.5392 36.9252 32.8598 37.6025 31.6749 37.6025C31.3115 37.6025 31.0272 37.6025 30.2213 37.2344L28.5625 36.3511C28.1517 36.1303 27.8989 35.7179 27.8989 35.2763V28.489C27.8989 28.0474 28.1517 27.635 28.5625 27.4142L34.8663 24.0132C35.2613 23.8071 35.7986 23.8071 36.1935 24.0132L42.4973 27.4142C42.9081 27.635 43.161 28.0474 43.161 28.489V35.2763C43.161 35.7179 42.9081 36.1303 42.4973 36.3511L36.1935 39.7521C35.988 39.8405 35.751 39.8846 35.5298 39.8846ZM37.4732 35.2174C34.7084 35.2174 34.1396 34.0396 34.1396 33.0385C34.1396 32.95 34.2186 32.8618 34.3292 32.8618H35.1508C35.2455 32.8618 35.3245 32.9206 35.3245 33.009C35.451 33.7893 35.8143 34.1721 37.489 34.1721C38.8161 34.1721 39.3851 33.8923 39.3851 33.2298C39.3851 32.847 39.2269 32.5674 37.1573 32.3759C35.4351 32.2139 34.3608 31.8606 34.3608 30.5797C34.3608 29.3871 35.4352 28.6804 37.2363 28.6804C39.2585 28.6804 40.2539 29.3283 40.3804 30.7415C40.3804 30.7858 40.3645 30.8299 40.3329 30.8741C40.3012 30.9035 40.2539 30.933 40.2065 30.933H39.3849C39.3059 30.933 39.2269 30.8741 39.2112 30.8005C39.0216 29.9908 38.5318 29.7257 37.2363 29.7257C35.7827 29.7257 35.6088 30.1969 35.6088 30.5502C35.6088 30.9772 35.8143 31.1097 37.7734 31.3452C39.7167 31.5809 40.6331 31.9195 40.6331 33.1856C40.6173 34.4813 39.4798 35.2174 37.4732 35.2174Z" fill="white"/>
<path d="M15.9703 13.3391C15.9703 13.0742 15.8122 12.8237 15.5595 12.6912L8.86059 9.09889C8.74987 9.0399 8.62355 9.01048 8.49724 8.9957H8.43395C8.30764 8.9957 8.18119 9.0399 8.0706 9.09889L1.37172 12.6912C1.11883 12.8237 0.960938 13.074 0.960938 13.3391L0.976795 22.9974C0.976795 23.1298 1.05581 23.2623 1.18212 23.3213C1.30857 23.3949 1.46646 23.3949 1.57718 23.3213L5.55859 21.2012C5.81135 21.0687 5.96938 20.8184 5.96938 20.5534V16.0334C5.96938 15.7684 6.12726 15.5181 6.38016 15.3856L8.0706 14.4728C8.19705 14.3991 8.33922 14.3696 8.48139 14.3696C8.62355 14.3696 8.76572 14.3991 8.87645 14.4728L10.5669 15.3856C10.8198 15.5181 10.9777 15.7683 10.9777 16.0334V20.5534C10.9777 20.8184 11.1357 21.0687 11.3885 21.2012L15.3699 23.3213C15.4963 23.3949 15.6542 23.3949 15.7807 23.3213C15.9071 23.2623 15.9861 23.1298 15.9861 22.9974L15.9703 13.3391ZM48.1691 0.0442357C48.0428 -0.0147452 47.8848 -0.0147452 47.7741 0.0442357C47.6478 0.117866 47.5687 0.235573 47.5687 0.368057V9.93812C47.5687 10.0264 47.5214 10.1147 47.4266 10.1737C47.3318 10.2177 47.237 10.2177 47.1422 10.1737L45.4675 9.27557C45.3447 9.21043 45.2059 9.17617 45.0646 9.17617C44.9233 9.17617 44.7845 9.21043 44.6617 9.27557L37.9628 12.8827C37.71 13.0152 37.552 13.2655 37.552 13.5305V20.73C37.552 20.9949 37.71 21.2454 37.9628 21.3779L44.6617 24.985C44.7845 25.0501 44.9233 25.0844 45.0646 25.0844C45.2059 25.0844 45.3447 25.0501 45.4675 24.985L52.1664 21.3779C52.4192 21.2454 52.5772 20.9951 52.5772 20.73V2.78271C52.5772 2.50296 52.4192 2.25277 52.1664 2.12016L48.1691 0.0442357ZM47.553 18.3596C47.553 18.4333 47.5214 18.4921 47.4582 18.5216L45.1673 19.7582C45.1353 19.7728 45.1002 19.7804 45.0646 19.7804C45.029 19.7804 44.9939 19.7728 44.9619 19.7582L42.671 18.5216C42.6077 18.4921 42.5762 18.4185 42.5762 18.3596V15.8861C42.5762 15.8125 42.6077 15.7537 42.671 15.7242L44.9619 14.4874C44.9939 14.4729 45.029 14.4653 45.0646 14.4653C45.1002 14.4653 45.1353 14.4729 45.1673 14.4874L47.4582 15.7242C47.5214 15.7535 47.553 15.8273 47.553 15.8861V18.3596ZM70.4619 15.8273C70.7148 15.6948 70.8569 15.4445 70.8569 15.1794V13.4274C70.8569 13.1625 70.6989 12.9121 70.4619 12.7797L63.8104 9.18729C63.6877 9.12217 63.5488 9.08793 63.4076 9.08793C63.2663 9.08793 63.1275 9.12217 63.0047 9.18729L56.3058 12.7943C56.0529 12.9268 55.895 13.1771 55.895 13.4422V20.6417C55.895 20.9067 56.0529 21.157 56.3058 21.2895L62.9573 24.823C63.2102 24.9554 63.5102 24.9554 63.7473 24.823L67.776 22.7325C67.9024 22.6735 67.9814 22.5411 67.9814 22.4086C67.9814 22.2761 67.9024 22.1436 67.776 22.0846L61.0455 18.4775C60.9192 18.404 60.8402 18.2861 60.8402 18.1537V15.9011C60.8402 15.7686 60.9192 15.6361 61.0455 15.5771L63.1469 14.4581C63.2084 14.422 63.2796 14.4029 63.3523 14.4029C63.4249 14.4029 63.4961 14.422 63.5577 14.4581L65.6589 15.5771C65.7853 15.6507 65.8643 15.7684 65.8643 15.9011V17.6678C65.8643 17.8003 65.9434 17.9328 66.0697 17.9916C66.1961 18.0653 66.354 18.0653 66.4805 17.9916L70.4619 15.8273Z" fill="white"/>
<path d="M63.3051 15.4887C63.3285 15.4743 63.356 15.4667 63.384 15.4667C63.4121 15.4667 63.4395 15.4743 63.463 15.4887L64.7428 16.1807C64.7902 16.21 64.8218 16.2542 64.8218 16.3132V17.6971C64.8218 17.756 64.7902 17.8002 64.7428 17.8296L63.463 18.5216C63.4395 18.536 63.4121 18.5436 63.384 18.5436C63.356 18.5436 63.3285 18.536 63.3051 18.5216L62.0253 17.8296C61.9779 17.8002 61.9463 17.756 61.9463 17.6971V16.3132C61.9463 16.2542 61.9779 16.21 62.0253 16.1807L63.3051 15.4887Z" fill="white"/>
<path d="M27.172 9.21668C27.0493 9.15155 26.9104 9.11731 26.7692 9.11731C26.6279 9.11731 26.4891 9.15155 26.3663 9.21668L19.7149 12.7941C19.462 12.9266 19.3198 13.1769 19.3198 13.4419V20.6121C19.3198 20.8771 19.4779 21.1274 19.7149 21.2599L26.3663 24.8376C26.4891 24.9027 26.6279 24.9369 26.7692 24.9369C26.9104 24.9369 27.0493 24.9027 27.172 24.8376L33.8236 21.2599C34.0764 21.1274 34.2187 20.8771 34.2187 20.6121V13.442C34.2187 13.1771 34.0605 12.9267 33.8236 12.7943L27.172 9.21668Z" fill="url(#paint0_linear_151_98)"/>
<mask id="mask0_151_98" style="mask-type:luminance" maskUnits="userSpaceOnUse" x="19" y="9" width="16" height="16">
<path d="M27.172 9.21668C27.0493 9.15155 26.9104 9.11731 26.7692 9.11731C26.6279 9.11731 26.4891 9.15155 26.3663 9.21668L19.7149 12.7941C19.462 12.9266 19.3198 13.1769 19.3198 13.4419V20.6121C19.3198 20.8771 19.4779 21.1274 19.7149 21.2599L26.3663 24.8376C26.4891 24.9027 26.6279 24.9369 26.7692 24.9369C26.9104 24.9369 27.0493 24.9027 27.172 24.8376L33.8236 21.2599C34.0764 21.1274 34.2187 20.8771 34.2187 20.6121V13.442C34.2187 13.1771 34.0605 12.9267 33.8236 12.7943L27.172 9.21668Z" fill="white"/>
</mask>
<g mask="url(#mask0_151_98)">
<path d="M33.8398 12.7943L27.1567 9.2167C27.0911 9.1858 27.0222 9.16113 26.9513 9.14307L19.4624 21.0982C19.5244 21.1688 19.5994 21.2286 19.6837 21.2749L26.3667 24.8526C26.5563 24.9557 26.7775 24.9851 26.9828 24.9261L34.0136 12.9417C33.9662 12.8828 33.9029 12.8384 33.8398 12.7943Z" fill="url(#paint1_linear_151_98)"/>
</g>
<mask id="mask1_151_98" style="mask-type:luminance" maskUnits="userSpaceOnUse" x="19" y="9" width="16" height="16">
<path d="M27.172 9.21668C27.0493 9.15155 26.9104 9.11731 26.7692 9.11731C26.6279 9.11731 26.4891 9.15155 26.3663 9.21668L19.7149 12.7941C19.462 12.9266 19.3198 13.1769 19.3198 13.4419V20.6121C19.3198 20.8771 19.4779 21.1274 19.7149 21.2599L26.3663 24.8376C26.4891 24.9027 26.6279 24.9369 26.7692 24.9369C26.9104 24.9369 27.0493 24.9027 27.172 24.8376L33.8236 21.2599C34.0764 21.1274 34.2187 20.8771 34.2187 20.6121V13.442C34.2187 13.1771 34.0605 12.9267 33.8236 12.7943L27.172 9.21668Z" fill="white"/>
</mask>
<g mask="url(#mask1_151_98)">
<path d="M34.2662 20.6122V13.442C34.2662 13.1771 34.0924 12.9268 33.8396 12.7943L27.1562 9.2167C27.079 9.17224 26.9932 9.14225 26.9036 9.12842L34.2186 20.7743C34.2502 20.7301 34.266 20.6712 34.266 20.6124L34.2662 20.6122ZM19.6833 12.7943C19.4307 12.9268 19.2568 13.1772 19.2568 13.4422V20.6124C19.2568 20.8773 19.4464 21.1277 19.6833 21.2601L26.3665 24.8378C26.5245 24.9261 26.6983 24.9557 26.8879 24.9261L19.7308 12.7795L19.6835 12.7943H19.6833Z" fill="#D9D9D9"/>
<path fill-rule="evenodd" clip-rule="evenodd" d="M33.8553 21.26C34.0449 21.1569 34.1871 20.9802 34.2504 20.7889L26.9192 9.12827C26.7296 9.09884 26.5242 9.11349 26.3506 9.21655L19.7148 12.7796L26.8718 24.9408C26.9759 24.9249 27.077 24.8951 27.172 24.8525L33.8552 21.2601L33.8553 21.26Z" fill="white"/>
<path fill-rule="evenodd" clip-rule="evenodd" d="M33.8552 21.26L27.1879 24.8377C27.0938 24.8825 26.9923 24.9123 26.8877 24.926L27.0141 25.1469L34.4081 21.1571V21.0687L34.2185 20.7742C34.187 20.9803 34.0448 21.157 33.8552 21.26Z" fill="url(#paint2_linear_151_98)"/>
<path fill-rule="evenodd" clip-rule="evenodd" d="M33.8552 21.26L27.1879 24.8377C27.0938 24.8825 26.9923 24.9123 26.8877 24.926L27.0141 25.1469L34.4081 21.1571V21.0687L34.2185 20.7742C34.187 20.9803 34.0448 21.157 33.8552 21.26Z" fill="url(#paint3_linear_151_98)"/>
</g>
</g>
<defs>
<linearGradient id="paint0_linear_151_98" x1="1035.24" y1="285.755" x2="377.161" y2="1395.39" gradientUnits="userSpaceOnUse">
<stop stop-color="#41873F"/>
<stop offset="0.3288" stop-color="#418B3D"/>
<stop offset="0.6352" stop-color="#419637"/>
<stop offset="0.9319" stop-color="#3FA92D"/>
<stop offset="1" stop-color="#3FAE2A"/>
</linearGradient>
<linearGradient id="paint1_linear_151_98" x1="649.196" y1="881.538" x2="2414.14" y2="-147.459" gradientUnits="userSpaceOnUse">
<stop offset="0.1376" stop-color="#41873F"/>
<stop offset="0.4032" stop-color="#54A044"/>
<stop offset="0.7136" stop-color="#66B848"/>
<stop offset="0.9081" stop-color="#6CC04A"/>
</linearGradient>
<linearGradient id="paint2_linear_151_98" x1="-754.194" y1="240.614" x2="784.926" y2="240.614" gradientUnits="userSpaceOnUse">
<stop offset="0.09192" stop-color="#6CC04A"/>
<stop offset="0.2864" stop-color="#66B848"/>
<stop offset="0.5968" stop-color="#54A044"/>
<stop offset="0.8624" stop-color="#41873F"/>
</linearGradient>
<linearGradient id="paint3_linear_151_98" x1="1009.16" y1="-902.175" x2="668.977" y2="1010.65" gradientUnits="userSpaceOnUse">
<stop stop-color="#41873F"/>
<stop offset="0.3288" stop-color="#418B3D"/>
<stop offset="0.6352" stop-color="#419637"/>
<stop offset="0.9319" stop-color="#3FA92D"/>
<stop offset="1" stop-color="#3FAE2A"/>
</linearGradient>
<clipPath id="clip0_151_98">
<rect width="70" height="40" fill="white" transform="translate(0.924805)"/>
</clipPath>
</defs>
</svg>
