<svg width="70" height="70" viewBox="0 0 70 70" fill="none" xmlns="http://www.w3.org/2000/svg">
<path d="M25.023 1.44907C13.618 2.25994 3.92238 3.00565 3.46652 3.09298C2.18839 3.31198 1.02567 4.14502 0.478937 5.24142L0 6.20614L0.113964 52.1911L0.843909 53.616C1.25504 54.4047 4.03778 58.0875 7.07153 61.8785C13.0712 69.3523 13.504 69.7695 15.7847 69.9885C16.4469 70.0536 21.4194 69.8346 26.8031 69.5283C32.2099 69.1998 40.877 68.6953 46.0789 68.4111C68.2961 67.1151 67.155 67.2246 68.4317 66.1726C70.0286 64.9015 69.9147 66.9834 69.9825 39.0385C70.0286 15.3446 70.0055 13.7894 69.6406 13.0659C69.2078 12.255 68.4317 11.6854 58.3033 4.84638C51.529 0.287528 51.05 0.0463486 48.0148 0.00199368C46.7612 -0.0409751 36.405 0.616032 25.023 1.44907ZM50.662 4.45134C51.6199 4.86717 58.6236 9.5577 59.6493 10.4573C59.9233 10.7206 60.0142 10.9396 59.8772 11.0713C59.5584 11.3347 16.216 13.8116 14.9624 13.6356C14.3926 13.5483 13.5487 13.2198 13.0698 12.912C11.0848 11.6188 6.15838 7.73915 6.15838 7.455C6.15838 6.70929 5.99825 6.70929 25.3202 5.37309C29.0161 5.13191 35.0836 4.69391 38.7794 4.40838C46.7843 3.79434 49.1804 3.81652 50.662 4.45134ZM64.4401 16.441C64.7589 16.7474 65.033 17.3392 65.1238 17.9089C65.1916 18.4356 65.2378 28.2547 65.1916 39.6955C65.1238 59.3336 65.1008 60.5617 64.7127 61.1314C64.4848 61.482 64.0289 61.8549 63.6856 61.9644C62.7292 62.3373 17.3124 64.8142 16.3776 64.5508C15.9448 64.4413 15.3505 64.0907 15.0317 63.7843L14.4835 63.2147L14.4157 42.0421C14.3695 27.1818 14.4157 20.6062 14.5989 20.0144C14.736 19.5764 15.0779 19.0496 15.375 18.875C15.7862 18.6116 18.478 18.3926 27.7394 17.8673C34.2411 17.5166 44.3002 16.9248 50.072 16.5963C63.801 15.784 63.7563 15.784 64.4401 16.441Z" fill="white"/>
<path d="M52.2358 23.6958C49.7719 23.8497 47.5821 24.0687 47.3311 24.2004C46.578 24.5732 46.1222 25.1873 46.0313 25.8886C45.9635 26.6122 46.1914 26.6995 48.6539 26.985L49.7257 27.1167V36.4756C49.7257 42.0421 49.6349 45.725 49.5209 45.6155C49.4069 45.4838 46.1683 40.7503 42.3123 35.095C38.4577 29.419 35.2639 24.7493 35.2177 24.7063C35.1716 24.6619 32.6629 24.7936 29.6522 24.9918C25.9563 25.233 23.9266 25.452 23.5155 25.671C22.8534 25.9995 22.1234 27.1611 22.1234 27.9289C22.1234 28.3891 22.9904 28.6303 24.8153 28.6303H25.7731V55.5454L24.2224 56.0056C23.0135 56.3563 22.6023 56.5753 22.3975 57.0133C22.0325 57.759 22.0556 58.4382 22.4206 58.4382C22.5576 58.4382 25.1355 58.2843 28.1 58.1097C33.9627 57.7812 34.6234 57.6273 35.2394 56.4658C35.4226 56.1151 35.5812 55.7422 35.5812 55.6327C35.5812 55.5454 34.7835 55.2821 33.8242 55.0631C32.8432 54.8441 31.8623 54.625 31.6574 54.5807C31.2694 54.4712 31.2463 53.792 31.2463 44.3666V34.262L38.1808 44.7173C45.4571 55.6757 46.3703 56.926 47.4883 57.4735C48.8804 58.1748 52.4162 57.6925 54.1949 56.5753L54.743 56.2468L54.7892 41.2992L54.857 26.3294L56.0659 26.1104C57.5027 25.847 58.1648 25.2122 58.1648 24.1158C58.1648 23.4144 58.1187 23.3701 57.4349 23.3923C57.0266 23.4103 54.6767 23.542 52.2358 23.6958Z" fill="white"/>
</svg>
