<svg width="70" height="70" viewBox="0 0 70 70" fill="none" xmlns="http://www.w3.org/2000/svg">
<path d="M34.9459 40.811C38.1788 40.811 40.7996 38.1903 40.7996 34.9574C40.7996 31.7245 38.1788 29.1038 34.9459 29.1038C31.7131 29.1038 29.0923 31.7245 29.0923 34.9574C29.0923 38.1903 31.7131 40.811 34.9459 40.811Z" fill="white"/>
<path d="M34.9457 23.0568C42.8034 23.0568 50.104 24.1845 55.6075 26.0784C62.2388 28.361 66.3166 31.8218 66.3166 34.9556C66.3166 38.2209 61.9951 41.8983 54.8744 44.2564C49.4908 46.04 42.4049 46.9724 34.9457 46.9724C27.2968 46.9724 20.0562 46.098 14.6107 44.2371C7.72215 41.8828 3.57275 38.159 3.57275 34.9556C3.57275 31.8469 7.4668 28.4133 14.0052 26.1345C19.53 24.2097 27.0105 23.0568 34.9457 23.0568Z" stroke="white" stroke-width="3" stroke-miterlimit="10"/>
<path d="M24.587 29.0419C28.512 22.2345 33.1372 16.4737 37.5284 12.6532C42.8192 8.04921 47.8545 6.2463 50.5686 7.81127C53.3967 9.44201 54.4239 15.0229 52.9093 22.3719C51.7641 27.9276 49.0326 34.5299 45.3049 40.9929C41.4844 47.6184 37.1087 53.4546 32.7774 57.2423C27.2971 62.0339 21.9967 63.7672 19.2227 62.1674C16.53 60.614 15.5009 55.5264 16.7911 48.723C17.8822 42.9699 20.6214 35.915 24.587 29.0419Z" stroke="white" stroke-width="3" stroke-miterlimit="10"/>
<path d="M24.5966 41.0065C20.66 34.205 17.9788 27.3222 16.8607 21.6098C15.5144 14.727 16.4661 9.46335 19.1782 7.89451C22.0044 6.25797 27.3513 8.15566 32.9612 13.1369C37.2034 16.9032 41.5579 22.5673 45.2952 29.0245C49.1274 35.6442 52 42.349 53.1162 47.9918C54.5303 55.1338 53.3851 60.5909 50.613 62.1945C47.9222 63.7518 43.001 62.1036 37.7509 57.5867C33.3171 53.77 28.5719 47.8738 24.5966 41.0065Z" stroke="white" stroke-width="3" stroke-miterlimit="10"/>
</svg>
