<svg width="70" height="70" viewBox="0 0 70 70" fill="none" xmlns="http://www.w3.org/2000/svg">
<path d="M48.5026 48.8314C51.0858 48.5509 53.0455 46.2147 52.9564 43.4109C52.8675 40.6074 50.6403 38.3644 47.968 38.3644H47.79C45.0283 38.4579 42.8906 40.8876 42.9797 43.7846C43.0689 45.1865 43.6032 46.4014 44.4049 47.2425C41.3763 53.5041 36.7443 58.0833 29.7962 61.9149C25.075 64.5317 20.1759 65.4663 15.2767 64.8123C11.2681 64.2514 8.15035 62.3825 6.19035 59.2982C3.34004 54.719 3.07289 49.7657 5.47804 44.8128C7.17062 41.2614 9.84265 38.6446 11.5352 37.3363C11.1789 36.1214 10.6444 34.0654 10.3772 32.5703C-2.53914 42.383 -1.20285 55.6536 2.7166 61.9149C5.65605 66.5879 11.6244 69.485 18.2161 69.485C19.9976 69.485 21.779 69.2979 23.5607 68.8309C34.9628 66.4944 43.6034 59.3917 48.5026 48.8314ZM64.1804 37.243C57.4104 28.9254 47.4337 24.3463 36.0317 24.3463H34.6065C33.8048 22.6641 32.1122 21.5425 30.2416 21.5425H30.0634C27.3022 21.636 25.1644 24.0657 25.2533 26.963C25.3425 29.7665 27.5693 32.0095 30.2416 32.0095H30.4196C32.3794 31.916 34.0719 30.6076 34.7845 28.8319H36.388C43.158 28.8319 49.5715 30.8879 55.3618 34.9065C59.8155 37.9906 63.0224 42.0093 64.8039 46.8687C66.3182 50.7938 66.229 54.6255 64.6256 57.8966C62.1316 62.8495 57.945 65.5598 52.4221 65.5598C48.8589 65.5598 45.474 64.4382 43.6923 63.5971C42.7126 64.5317 40.9309 66.0268 39.6837 66.9617C43.5143 68.8306 47.4337 69.8587 51.1749 69.8587C59.7264 69.8587 66.051 64.9055 68.4562 59.9525C71.0393 54.532 70.8611 45.1865 64.1804 37.243ZM18.9287 50.4198C19.0178 53.2236 21.2447 55.4663 23.917 55.4663H24.0953C26.8568 55.373 28.9945 52.943 28.9053 50.046C28.8165 47.2422 26.5893 44.9995 23.917 44.9995H23.739C23.5607 44.9995 23.2933 44.9995 23.1156 45.0927C19.4633 38.7379 17.949 31.8225 18.4836 24.346C18.8396 18.7387 20.6213 13.8789 23.739 9.86026C26.3222 6.40242 31.3105 4.72026 34.6957 4.62703C44.1377 4.43999 48.146 16.7759 48.4135 21.7292C49.5715 22.0095 51.5312 22.6638 52.8675 23.1311C51.7984 7.99164 42.8906 0.141357 34.3394 0.141357C26.3222 0.141357 18.9287 6.21596 15.989 15.1876C11.8915 27.1498 14.5638 38.6446 19.5521 47.7098C19.107 48.3638 18.8396 49.3917 18.9287 50.4198Z" fill="white"/>
</svg>
