<svg width="70" height="50" viewBox="0 0 70 50" fill="none" xmlns="http://www.w3.org/2000/svg">
<g clip-path="url(#clip0_151_95)">
<path d="M60.2385 28.724C57.7912 28.7372 55.6721 29.2969 53.8947 30.1304C53.2385 28.8934 52.5822 27.8125 52.473 27.0054C52.3499 26.0679 52.1995 25.4948 52.3499 24.3752C52.5002 23.2552 53.1838 21.6667 53.1838 21.5365C53.17 21.4193 53.0333 20.8464 51.6252 20.8334C50.2171 20.8204 49.0002 21.0938 48.8635 21.4454C48.7267 21.7969 48.4533 22.6042 48.2756 23.4375C48.0295 24.6615 45.4592 28.9974 43.9963 31.2761C43.5178 30.3907 43.1076 29.6094 43.0254 28.9843C42.9025 28.0469 42.752 27.4739 42.9025 26.3542C43.0529 25.2343 43.7365 23.6459 43.7365 23.5157C43.7228 23.3985 43.5861 22.8256 42.1781 22.8125C40.7697 22.7995 39.5531 23.073 39.4163 23.4245C39.2796 23.7761 39.1292 24.6094 38.8285 25.4167C38.5412 26.224 35.1232 33.4636 34.2346 35.3516C33.7834 36.3151 33.387 37.0834 33.0998 37.6042C32.8127 38.125 33.0861 37.6433 33.0588 37.6954C32.8127 38.1381 32.676 38.3855 32.676 38.3855V38.3986C32.4846 38.7241 32.2795 39.0365 32.1836 39.0365C32.1153 39.0365 31.9786 38.1641 32.211 36.9663C32.7168 34.4532 33.9473 30.534 33.9338 30.3908C33.9338 30.3257 34.1661 29.6355 33.1407 29.284C32.1426 28.9325 31.7873 29.5184 31.7051 29.5184C31.6231 29.5184 31.5547 29.7267 31.5547 29.7267C31.5547 29.7267 32.6622 25.3128 29.4356 25.3128C27.4122 25.3128 24.6231 27.4092 23.2422 29.3232C22.3672 29.7789 20.5079 30.7424 18.5391 31.7711C17.7872 32.1618 17.0079 32.5784 16.2696 32.956L16.1193 32.7995C12.2092 28.8282 4.97675 26.0157 5.27753 20.6771C5.38691 18.737 6.09785 13.6198 19.1683 7.42192C29.8734 2.34379 38.4456 3.73702 39.9357 6.83598C42.0549 11.2631 35.3557 19.4922 24.2269 20.6771C19.9886 21.1329 17.76 19.5704 17.1995 18.9844C16.6117 18.3724 16.5296 18.3464 16.3109 18.4636C15.9554 18.6459 16.1742 19.1927 16.3109 19.5183C16.639 20.3386 18.0062 21.7969 20.3304 22.5261C22.3674 23.1641 27.3441 23.5157 33.3597 21.3021C40.0999 18.8151 45.3636 11.9141 43.8187 6.14588C42.2464 0.273481 32.0199 -1.6536 22.3538 1.61463C16.5978 3.56775 10.3635 6.61463 5.87909 10.612C0.547064 15.3516 -0.300593 19.4922 0.054876 21.211C1.29915 27.3438 10.1721 31.3412 13.7268 34.2969C13.549 34.3879 13.385 34.4791 13.2346 34.5573C11.4572 35.3905 4.68964 38.7631 2.99433 42.3306C1.08027 46.3671 3.29511 49.2709 4.77167 49.6615C9.33808 50.8724 14.0139 48.698 16.5432 45.1172C19.0586 41.5365 18.758 36.8881 17.5959 34.7657L17.5547 34.6875L18.9493 33.9063C19.8518 33.3985 20.7404 32.9297 21.5196 32.526C21.0822 33.6588 20.7676 34.9999 20.6037 36.953C20.4123 39.2448 21.3967 42.2135 22.6955 43.3853C23.2697 43.893 23.9533 43.9062 24.3771 43.9062C25.881 43.9062 26.5646 42.7211 27.3166 41.302C28.2463 39.5702 29.0666 37.565 29.0666 37.565C29.0666 37.565 28.0412 42.9947 30.8439 42.9947C31.8693 42.9947 32.8947 41.7317 33.3596 41.0806V41.0937C33.3596 41.0937 33.3869 41.0546 33.4416 40.9635C33.499 40.8827 33.5537 40.8002 33.6057 40.7162V40.6901C34.0158 40.0131 34.9318 38.4636 36.299 35.8985C38.0626 32.5912 39.758 28.4506 39.758 28.4506C39.758 28.4506 39.9221 29.4662 40.4279 31.1329C40.7286 32.1226 41.3848 33.2032 41.8907 34.2579C41.4805 34.8047 41.2344 35.1174 41.2344 35.1174L41.2481 35.1304C40.9201 35.547 40.5508 35.9899 40.1682 36.4325C38.7736 38.021 37.1057 39.831 36.8869 40.3519C36.6271 40.9637 36.6818 41.4194 37.1877 41.7842C37.5568 42.0446 38.2131 42.0965 38.9103 42.0446C40.1682 41.9663 41.0432 41.667 41.4807 41.4845C42.1642 41.2502 42.9435 40.8986 43.6955 40.3778C45.0627 39.4144 45.8967 38.0472 45.8146 36.2243C45.7736 35.2217 45.4318 34.2321 45.008 33.2946C45.131 33.1253 45.2542 32.9559 45.3771 32.7737C47.5373 29.7658 49.2053 26.4586 49.2053 26.4586C49.2053 26.4586 49.3693 27.4743 49.8752 29.1409C50.1348 29.9873 50.6545 30.9119 51.1193 31.8233C49.0959 33.3989 47.8244 35.2218 47.3869 36.4197C46.5803 38.6332 47.2092 39.6359 48.3986 39.8702C48.9317 39.9744 49.6975 39.74 50.2715 39.5056C50.9825 39.2843 51.8438 38.9066 52.6369 38.3468C54.0041 37.3832 55.3166 36.0421 55.2482 34.2322C55.2072 33.3989 54.9748 32.5786 54.6603 31.7973C56.383 31.1202 58.6114 30.7296 61.4416 31.0551C67.5256 31.7322 68.7287 35.352 68.4964 36.8624C68.264 38.373 66.9925 39.2062 66.5685 39.4666C66.1447 39.714 66.008 39.8053 66.049 39.9874C66.1037 40.261 66.2951 40.2478 66.6643 40.1959C67.1701 40.1176 69.8635 38.9589 69.9728 36.1726C70.1369 32.5913 66.5685 28.6851 60.2385 28.724ZM13.3166 43.7891C11.3068 45.8855 8.47675 46.6797 7.27363 46.0026C5.9748 45.2865 6.48052 42.2006 8.95527 39.974C10.4592 38.6198 12.4143 37.3698 13.6994 36.6016C13.9865 36.4323 14.424 36.1851 14.9435 35.8855C15.0256 35.8335 15.0803 35.8073 15.0803 35.8073C15.176 35.7553 15.2853 35.6901 15.3947 35.625C16.3107 38.8021 15.4357 41.5886 13.3166 43.7891ZM28.0139 34.2709C27.3166 35.8985 25.84 40.0782 24.9514 39.8438C24.1856 39.6485 23.7209 36.4844 24.8008 33.3594C25.3477 31.7838 26.5098 29.9089 27.1934 29.1796C28.301 28.0077 29.504 27.6171 29.8049 28.0989C30.1603 28.724 28.4514 33.2553 28.0139 34.2709ZM40.1408 39.7917C39.84 39.9351 39.5666 40.0391 39.4435 39.9611C39.3478 39.909 39.5665 39.7137 39.5665 39.7137C39.5665 39.7137 41.084 38.1642 41.6856 37.4481C42.0274 37.0316 42.4376 36.5498 42.8751 36.0028V36.159C42.8752 38.0339 40.9885 39.2839 40.1408 39.7917ZM49.4922 37.7605C49.2735 37.6042 49.301 37.1224 50.0391 35.612C50.3264 35.0131 50.9825 34.0105 52.1172 33.0599C52.254 33.4506 52.3361 33.828 52.3223 34.1797C52.3088 36.5235 50.5588 37.3959 49.4922 37.7605Z" fill="white"/>
</g>
<defs>
<clipPath id="clip0_151_95">
<rect width="70" height="50" fill="white"/>
</clipPath>
</defs>
</svg>
